<?xml version="1.0" standalone="no"?>
<svg version="1.0" xmlns="http://www.w3.org/2000/svg" width="256.000000pt" height="256.000000pt" viewBox="0 0 256.000000 256.000000" preserveAspectRatio="xMidYMid meet">
	<g transform="translate(0.000000,256.000000) scale(0.100000,-0.100000)" fill="#FFFFFF" stroke="none">
		<path d="M2173 1955 c-12 -8 -27 -30 -33 -49 -34 -104 -228 -199 -450 -222
-19 -2 -53 -6 -75 -8 -22 -3 -65 -8 -95 -11 -30 -3 -77 -8 -105 -12 -27 -3
-59 -7 -70 -8 -236 -23 -503 -98 -683 -192 l-84 -43 -18 22 c-11 13 -19 26
-20 29 0 4 -17 18 -38 31 -44 29 -89 42 -162 47 -27 1 -43 43 -42 105 2 77
-29 118 -98 131 -19 3 -60 -18 -82 -42 -12 -13 -18 -38 -19 -88 -3 -170 56
-266 187 -300 31 -8 59 -14 62 -14 25 4 42 -4 47 -21 5 -17 -8 -37 -63 -94
-100 -105 -140 -193 -166 -356 -2 -18 -9 -24 -22 -22 -11 1 -31 4 -46 7 -19 3
-37 -3 -55 -20 -25 -21 -28 -30 -27 -87 1 -84 8 -115 48 -201 40 -85 94 -150
146 -177 35 -18 39 -18 71 -2 22 11 38 28 44 49 l11 32 43 -30 c57 -38 139
-77 174 -83 24 -4 27 -2 22 14 -27 85 -25 209 5 318 63 230 255 407 491 451
131 24 264 3 405 -65 66 -33 200 -154 230 -209 10 -19 22 -34 25 -33 4 2 69
60 145 130 159 144 211 186 294 233 110 62 215 79 286 47 41 -19 81 -9 96 23
11 25 -5 72 -82 239 -15 34 -58 129 -95 211 -37 83 -77 170 -88 195 -38 84
-70 105 -114 75z" />
		<path d="M1135 979 c-44 -4 -99 -14 -122 -23 -154 -56 -278 -195 -313 -351
-11 -51 -15 -163 -5 -200 2 -11 8 -36 13 -55 37 -149 191 -296 354 -338 53
-14 190 -12 247 3 122 32 250 134 309 246 121 232 40 522 -183 654 -98 58
-177 75 -300 64z m149 -205 c55 -18 137 -88 163 -138 9 -17 21 -54 28 -83 48
-208 -148 -403 -356 -353 -141 34 -228 137 -235 280 -3 67 0 83 25 136 43 89
126 157 209 170 20 3 39 8 41 10 7 7 73 -5 125 -22z" />
		<path d="M1137 588 c-40 -15 -69 -75 -56 -120 30 -110 185 -104 202 8 13 82
-65 142 -146 112z" />
	</g>
</svg>
